<?xml version="1.0" encoding="UTF-8"?>
<svg width="40px" height="40px" viewBox="0 0 40 40" version="1.1" xmlns="http://www.w3.org/2000/svg" xmlns:xlink="http://www.w3.org/1999/xlink">
    <title>icon-24</title>
    <defs>
        <rect id="path-1" x="0" y="0" width="40" height="40"></rect>
        <linearGradient x1="50%" y1="0%" x2="50%" y2="100%" id="linearGradient-3">
            <stop stop-color="#B2EBFE" offset="0%"></stop>
            <stop stop-color="#00B2F0" offset="100%"></stop>
        </linearGradient>
        <path d="M26.3703704,0 C31.4376912,0 35.5765598,3.99292252 35.8386723,9.01730145 C35.2314079,9.319067 34.8148148,9.94212331 34.8148148,10.6617647 C34.8148148,11.2384333 35.0823201,11.753082 35.5008721,12.0901088 L35.467982,12.2151198 L35.467982,12.2151198 C38.0959953,13.0574267 40,15.5315591 40,18.452381 C40,21.9899191 37.2070693,24.8722213 33.7152798,24.9958669 L33.4814815,25 L6.51851852,25 C2.91844015,25 0,22.0685311 0,18.452381 C0,14.8362308 2.91844015,11.9047619 6.51851852,11.9047619 L6.5465989,11.9048214 L6.5465989,11.9048214 C6.52750223,11.708679 6.51851852,11.5101552 6.51851852,11.3095238 C6.51851852,7.69337366 9.43695867,4.76190476 13.037037,4.76190476 C14.7136061,4.76190476 16.2423416,5.39768096 17.3973229,6.4423041 C18.6709759,2.69494986 22.2073522,0 26.3703704,0 Z" id="path-4"></path>
        <filter x="-1.2%" y="-2.0%" width="102.5%" height="104.0%" filterUnits="objectBoundingBox" id="filter-5">
            <feOffset dx="0" dy="-1" in="SourceAlpha" result="shadowOffsetInner1"></feOffset>
            <feComposite in="shadowOffsetInner1" in2="SourceAlpha" operator="arithmetic" k2="-1" k3="1" result="shadowInnerInner1"></feComposite>
            <feColorMatrix values="0 0 0 0 0   0 0 0 0 0.505882353   0 0 0 0 0.737254902  0 0 0 0.48 0" type="matrix" in="shadowInnerInner1"></feColorMatrix>
        </filter>
        <path d="M14.302991,12.4102673 L14.302991,13.6117253 L15.4605334,13.6117253 L15.2186589,14.4007426 L14.302991,14.4007426 L14.302991,16.3553535 C14.302991,16.7319299 14.4239283,16.8574553 14.6830796,16.8574553 C14.9076774,16.8574553 15.1149984,16.7677943 15.2704891,16.660201 L15.5641939,17.341625 C15.2877659,17.5388793 14.8212936,17.6464726 14.4412051,17.6464726 C13.750135,17.6644048 13.3354929,17.2698962 13.3354929,16.6064044 L13.3354929,14.4007426 L12.6444226,14.4007426 L12.6444226,13.6117253 L13.3354929,13.6117253 L13.3354929,12.6971826 L14.302991,12.4102673 Z M18.0520462,13.5220607 C18.2248137,13.5220607 18.4321348,13.5758573 18.5876255,13.6834506 L18.2420905,14.5262644 C18.069323,14.4186712 17.9138322,14.400739 17.8101717,14.400739 C17.5510204,14.400739 17.3436994,14.5083322 17.0327178,14.7952476 L17.0327178,17.5926724 L16.06522,17.5926724 L16.06522,13.6117217 L16.8945038,13.6117217 L16.9981643,14.060027 C17.3436994,13.7013828 17.6546809,13.5220607 18.0520462,13.5220607 Z M8.22157434,12.051623 C9.36183997,12.051623 9.88014253,12.733047 9.88014253,13.4503354 C9.88014253,13.9345051 9.65554476,14.3648781 9.24090271,14.5979969 L9.24090271,14.6159291 C9.86286578,14.777319 10.2429543,15.2973531 10.2429543,15.9429126 C10.2429543,16.8036587 9.62099125,17.5747438 8.37706511,17.5747438 L6.66666667,17.5747438 L6.66666667,12.051623 L8.22157434,12.051623 Z M12.0397365,13.6117235 L12.0397365,17.574742 L11.0722384,17.574742 L11.0722384,13.6117235 L12.0397365,13.6117235 Z M20.0388727,13.6117235 L20.0388727,17.574742 L19.0713751,17.574742 L19.0713751,13.6117235 L20.0388727,13.6117235 Z M21.6110571,13.6117235 L22.5094482,14.9028426 L23.4251161,13.6117235 L24.4271677,13.6117235 L23.0277508,15.5842666 L24.4444444,17.574742 L23.4423928,17.574742 L22.526725,16.2477584 L21.5937804,17.574742 L20.5917285,17.574742 L21.9911457,15.5842666 L20.609005,13.6117235 L21.6110571,13.6117235 Z M8.37706511,15.1897598 L7.65144153,15.1897598 L7.65144153,16.7498621 L8.25612785,16.7498621 C8.89536767,16.7498621 9.25817946,16.4988111 9.25817946,15.9429126 C9.25817946,15.4766752 8.91264442,15.1897598 8.37706511,15.1897598 Z M8.10063708,12.8944369 L7.65144153,12.8944369 L7.65144153,14.3648781 L8.10063708,14.3648781 C8.63621639,14.3648781 8.92992117,14.0600306 8.92992117,13.6296575 C8.92992117,13.2172167 8.6707699,12.8944369 8.10063708,12.8944369 Z M11.5559875,11.7647059 C11.8842458,11.7647059 12.1606738,12.0157568 12.1606738,12.374401 C12.1606738,12.6971808 11.9015225,12.966164 11.5559875,12.966164 C11.2104524,12.966164 10.9685782,12.715113 10.9685782,12.374401 C10.9685782,12.033689 11.2277292,11.7647059 11.5559875,11.7647059 Z M19.5551236,11.7647059 C19.8833819,11.7647059 20.1425332,12.033689 20.1425332,12.374401 C20.1425332,12.6971808 19.8833819,12.966164 19.5378469,12.966164 C19.1923118,12.966164 18.9677135,12.715113 18.9677135,12.374401 C18.9677135,12.033689 19.2268653,11.7647059 19.5551236,11.7647059 Z" id="path-6"></path>
        <filter x="-1.1%" y="-10.2%" width="102.2%" height="113.6%" filterUnits="objectBoundingBox" id="filter-7">
            <feOffset dx="0" dy="-0.4" in="SourceAlpha" result="shadowOffsetOuter1"></feOffset>
            <feColorMatrix values="0 0 0 0 0.00392156863   0 0 0 0 0.494117647   0 0 0 0 0.737254902  0 0 0 1 0" type="matrix" in="shadowOffsetOuter1"></feColorMatrix>
        </filter>
        <linearGradient x1="50%" y1="0%" x2="50%" y2="62.5957232%" id="linearGradient-8">
            <stop stop-color="#0083BD" offset="0%"></stop>
            <stop stop-color="#00619D" offset="100%"></stop>
        </linearGradient>
        <path d="M33.2612912,11.7647059 L33.2612912,15.3546713 L34.0740741,15.3546713 L34.0740741,16.2197232 L33.2612912,16.2197232 L33.2612912,17.6470588 L32.2859517,17.6470588 L32.2859517,16.2197232 L29.8476041,16.2197232 L29.8476041,15.5060554 L32.5501061,11.7647059 L33.2612912,11.7647059 Z M27.9172455,11.7647059 C29.0957787,11.7647059 29.6647267,12.4134948 29.6647267,13.300173 C29.6647267,14.1219723 29.1364178,14.6139706 28.5649298,15.0843426 L28.2518428,15.3406166 C27.7845365,15.7273675 27.3473718,16.13715 27.2060584,16.7387543 L27.2060584,16.7387543 L29.7256855,16.7387543 L29.7256855,17.6254325 L25.9259259,17.6254325 C26.1494406,14.7058824 28.6284285,14.6193772 28.6081089,13.4083045 C28.6081089,12.8676471 28.2017175,12.6730104 27.7546869,12.6730104 C27.2060584,12.6730104 26.7590278,12.8676471 26.3526363,13.0622837 L26.3526363,13.0622837 L26.0884815,12.2404844 C26.5355125,12.0025952 27.1654213,11.7647059 27.9172455,11.7647059 Z M32.3265908,13.3650519 L30.9448598,15.3546713 C31.0667773,15.3546713 31.4325276,15.333045 31.6357233,15.333045 L31.6357233,15.333045 L32.2859517,15.333045 L32.2859517,14.5112457 C32.2859517,14.0570934 32.3265908,13.5380623 32.3265908,13.3650519 L32.3265908,13.3650519 Z" id="path-9"></path>
        <filter x="-2.5%" y="-3.4%" width="104.9%" height="113.6%" filterUnits="objectBoundingBox" id="filter-10">
            <feOffset dx="0" dy="0.4" in="SourceAlpha" result="shadowOffsetOuter1"></feOffset>
            <feColorMatrix values="0 0 0 0 1   0 0 0 0 1   0 0 0 0 1  0 0 0 0.8 0" type="matrix" in="shadowOffsetOuter1"></feColorMatrix>
        </filter>
    </defs>
    <g id="tab-apps" stroke="none" stroke-width="1" fill="none" fill-rule="evenodd">
        <g id="tab-apps-1160ðŸš©" transform="translate(-532.000000, -715.000000)">
            <g id="2" transform="translate(72.000000, 32.000000)">
                <g id="icon-24" transform="translate(460.000000, 683.000000)">
                    <mask id="mask-2" fill="white">
                        <use xlink:href="#path-1"></use>
                    </mask>
                    <use id="è’™ç‰ˆ" fill="#FFFFFF" opacity="0" xlink:href="#path-1"></use>
                    <g id="ç¼–ç»„-7" mask="url(#mask-2)">
                        <g transform="translate(0.000000, 7.000000)">
                            <g id="å½¢çŠ¶ç»“åˆ">
                                <use fill="url(#linearGradient-3)" fill-rule="evenodd" xlink:href="#path-4"></use>
                                <use fill="black" fill-opacity="1" filter="url(#filter-5)" xlink:href="#path-4"></use>
                            </g>
                            <g id="å½¢çŠ¶ç»“åˆ" fill-rule="nonzero">
                                <use fill="black" fill-opacity="1" filter="url(#filter-7)" xlink:href="#path-6"></use>
                                <use fill="#FFFFFF" xlink:href="#path-6"></use>
                            </g>
                            <g id="å½¢çŠ¶ç»“åˆ" fill-rule="nonzero">
                                <use fill="black" fill-opacity="1" filter="url(#filter-10)" xlink:href="#path-9"></use>
                                <use fill="url(#linearGradient-8)" xlink:href="#path-9"></use>
                            </g>
                            <g id="icon-24å¤‡ä»½" stroke-width="1" fill-rule="evenodd" transform="translate(34.074074, 8.088235)">
                                <g id="ç¼–ç»„-4">
                                    <path d="M2.22222222,4.41176471 C1.00427137,4.41176471 0,3.41487557 0,2.20588236 C0,0.996889156 1.00427137,0 2.22222222,0 C3.44017094,0 4.44444444,0.996889156 4.44444444,2.20588236 C4.44444444,3.41487557 3.44017094,4.41176471 2.22222222,4.41176471 Z" id="å½¢çŠ¶ç»“åˆ" fill="#00629A" fill-rule="nonzero"></path>
                                    <path d="M1.84912854,2.94117647 C1.64608268,2.94117647 1.48148148,2.77657528 1.48148148,2.57352941 L1.48148148,1.10566449 C1.48148148,0.901114581 1.64730194,0.735294118 1.85185185,0.735294118 C2.05640176,0.735294118 2.22222222,0.901114581 2.22222222,1.10566449 L2.22148148,2.20529412 L2.96568627,2.20588235 C3.16873214,2.20588235 3.33333333,2.37048355 3.33333333,2.57352941 C3.33333333,2.77657528 3.16873214,2.94117647 2.96568627,2.94117647 L1.84912854,2.94117647 Z" id="å½¢çŠ¶ç»“åˆ" fill="#FFFFFF"></path>
                                </g>
                            </g>
                        </g>
                    </g>
                </g>
            </g>
        </g>
    </g>
</svg>